 <svg  version="1.0" xmlns="http://www.w3.org/2000/svg"  width="900.000000pt" height="333.000000pt" viewBox="0 0 900.000000 333.000000"  preserveAspectRatio="xMidYMid meet">  <g transform="translate(0.000000,333.000000) scale(0.100000,-0.100000)" fill="#fffafa" stroke="none"> <path d="M730 3315 c0 -18 -22 -21 -235 -36 -265 -18 -279 -20 -283 -46 -2 -13 21 -70 51 -130 31 -60 81 -163 112 -230 l56 -121 -5 -99 c-23 -467 -50 -1633 -37 -1646 7 -7 233 33 296 53 17 6 49 12 70 14 45 4 146 21 250 41 39 7 99 18 135 25 36 6 101 17 145 25 134 25 348 55 389 55 22 0 65 4 95 10 146 26 292 44 356 45 66 0 74 -3 150 -49 44 -27 91 -57 105 -66 14 -9 54 -31 90 -48 72 -35 122 -63 190 -107 25 -16 72 -42 105 -58 33 -17 78 -42 100 -56 22 -14 74 -44 116 -66 81 -42 297 -161 389 -214 51 -29 257 -141 409 -221 36 -20 84 -47 106 -61 22 -14 65 -38 95 -53 30 -16 74 -41 96 -57 66 -45 150 -89 171 -89 10 1 41 14 68 30 55 32 114 66 190 109 28 15 70 39 95 53 25 14 86 48 135 75 50 28 120 69 158 91 37 23 69 42 72 42 3 0 26 13 52 29 27 16 125 70 218 121 94 51 193 105 220 120 28 15 104 58 170 95 66 38 140 79 165 92 25 12 68 36 95 53 28 16 91 52 140 80 104 59 97 54 196 114 81 48 118 56 189 36 19 -5 80 -14 135 -19 55 -6 127 -15 160 -20 53 -9 165 -25 265 -38 19 -2 91 -14 160 -25 69 -11 177 -28 240 -38 127 -20 153 -24 255 -45 39 -8 106 -21 150 -30 44 -9 111 -23 149 -33 102 -25 98 -38 92 308 -7 457 -25 1040 -35 1100 -5 30 -7 60 -4 66 6 15 43 31 90 39 98 16 98 16 118 143 12 79 26 153 72 382 8 41 22 97 30 124 13 40 13 50 2 61 -14 13 -315 45 -419 45 -69 0 -100 8 -100 26 0 12 -530 14 -3520 14 -3073 0 -3520 -2 -3520 -15z m3537 -166 c54 -34 65 -66 61 -184 -1 -57 -7 -107 -11 -112 -5 -4 -144 -10 -310 -13 l-302 -5 -7 -382 c-4 -210 -3 -403 0 -430 l7 -48 135 0 135 0 0 130 0 130 -55 5 -55 5 -3 123 -3 122 224 0 c185 0 227 -3 237 -15 9 -11 11 -102 8 -373 -3 -397 -1 -383 -72 -437 l-35 -26 -283 -7 c-319 -8 -470 -2 -514 21 -16 8 -40 30 -54 49 l-25 33 3 395 c1 217 2 511 2 652 l0 257 48 49 c77 79 84 80 486 81 337 1 350 0 383 -20z m1257 -5 c31 -14 73 -46 96 -70 l40 -44 0 -273 c0 -308 3 -294 -79 -351 -47 -33 -54 -62 -16 -72 29 -7 113 -96 121 -128 3 -12 4 -123 2 -247 l-3 -226 -27 -35 c-15 -19 -44 -44 -65 -54 -36 -18 -63 -19 -457 -16 -231 2 -423 5 -428 8 -4 3 -8 347 -8 764 0 597 3 759 13 763 6 3 180 6 384 6 l372 1 55 -26z m-2323 4 c9 -32 -7 -1518 -16 -1527 -6 -5 -83 -11 -173 -13 l-163 -3 -26 60 c-14 33 -58 155 -98 270 -98 282 -95 273 -119 329 -18 43 -21 45 -26 25 -4 -13 -7 -132 -8 -264 -1 -132 -5 -284 -8 -338 -8 -113 9 -102 -168 -117 -65 -6 -122 -12 -125 -14 -3 -2 -16 0 -29 5 l-23 9 5 212 c3 117 10 461 16 763 10 448 15 554 26 573 14 22 18 22 162 20 l147 -3 27 -55 c24 -50 101 -234 133 -320 30 -81 89 -217 103 -238 10 -16 17 -20 22 -11 4 6 8 149 9 317 1 203 5 310 13 319 15 18 314 19 319 1z m3374 -18 c127 -10 144 -13 179 -38 74 -51 79 -64 88 -234 4 -84 10 -274 13 -423 3 -148 10 -377 16 -508 11 -260 8 -289 -40 -340 -53 -58 -108 -71 -226 -56 -44 5 -154 14 -245 18 -250 13 -389 30 -427 53 -18 10 -47 38 -65 61 l-33 41 -14 670 -14 669 51 48 51 49 263 0 c145 0 326 -5 403 -10z m-4465 -114 c0 -51 -4 -183 -9 -292 -6 -109 -13 -392 -16 -629 -6 -473 -10 -532 -34 -544 -9 -5 -68 -14 -131 -20 -63 -6 -129 -13 -147 -16 -18 -2 -36 2 -42 9 -10 12 -2 438 14 791 3 61 10 218 16 350 13 328 20 429 28 437 4 5 67 11 141 14 74 4 137 8 139 10 2 2 12 -1 22 -7 17 -8 19 -22 19 -103z m-504 70 c3 -7 -12 -46 -34 -87 -21 -41 -105 -204 -187 -364 -81 -159 -152 -294 -156 -299 -13 -15 -11 -51 5 -83 7 -15 20 -44 29 -63 18 -41 64 -142 119 -260 22 -47 76 -158 120 -248 50 -101 77 -167 71 -173 -5 -5 -58 -14 -118 -19 -60 -6 -128 -15 -150 -21 -22 -6 -63 -9 -90 -7 -45 3 -50 6 -69 43 -50 96 -157 342 -171 393 -4 12 -14 26 -24 32 -18 9 -19 -4 -26 -241 -6 -193 -10 -253 -21 -264 -8 -7 -36 -17 -62 -20 -26 -3 -63 -10 -82 -15 -19 -5 -66 -14 -105 -20 -58 -9 -71 -9 -80 3 -6 9 -8 62 -3 153 4 76 12 312 18 524 6 212 15 462 20 555 5 94 10 220 11 280 1 61 3 120 6 132 6 27 23 30 179 37 61 3 119 9 129 12 36 14 42 -16 29 -133 -17 -152 -28 -443 -17 -443 14 0 33 22 33 38 0 8 6 28 14 45 22 49 130 312 168 407 18 47 37 88 43 92 5 4 53 8 105 9 52 1 124 5 160 9 106 12 130 11 136 -4z m5754 -1 c146 -9 309 -20 364 -25 54 -6 129 -10 166 -10 44 0 71 -5 79 -13 6 -8 12 -71 13 -153 l3 -139 -153 4 -153 3 5 -163 c3 -90 8 -213 11 -274 13 -300 25 -654 27 -778 2 -111 -1 -140 -13 -148 -7 -5 -21 -6 -29 -3 -13 6 -72 16 -235 41 -76 11 -71 -6 -78 275 -15 660 -30 1063 -40 1070 -6 3 -77 9 -159 13 -171 9 -162 3 -172 110 -4 39 -9 94 -12 123 -3 29 -3 60 0 68 7 18 41 18 376 -1z m-3715 -1775 c0 -23 -4 -25 -60 -30 -59 -5 -60 -6 -60 -35 0 -30 1 -30 58 -33 48 -3 57 -6 57 -22 0 -16 -9 -19 -57 -22 l-58 -3 0 -35 0 -35 63 -3 c54 -3 62 -6 62 -22 0 -11 -3 -20 -7 -20 -17 -1 -179 -1 -188 -1 -8 1 -13 233 -6 284 1 4 45 7 99 5 96 -3 97 -3 97 -28z m845 17 c32 -16 37 -43 10 -57 -16 -9 -24 -8 -36 5 -18 17 -76 20 -105 5 -24 -13 -49 -61 -49 -94 0 -16 14 -38 37 -61 43 -41 86 -46 127 -14 27 22 35 48 14 50 -7 1 -24 2 -38 2 -15 1 -25 8 -25 17 0 18 103 36 118 21 11 -11 12 -71 2 -100 -9 -31 -61 -52 -127 -52 -103 -2 -157 42 -166 134 -6 67 18 114 73 138 46 21 129 24 165 6z m290 -100 c4 -93 8 -111 24 -123 36 -26 98 -15 114 21 6 13 9 63 7 114 -2 50 -1 93 3 95 4 2 19 2 35 -1 l27 -5 0 -89 c0 -138 -28 -185 -118 -196 -40 -4 -57 -1 -90 17 -51 29 -61 52 -69 160 -7 107 -3 122 34 118 l28 -3 5 -108z m528 103 c70 0 73 -1 70 -22 -3 -21 -9 -23 -70 -26 -68 -3 -68 -3 -68 -32 0 -23 5 -31 25 -36 14 -3 38 -4 53 -1 39 8 61 -7 46 -30 -8 -13 -21 -17 -44 -15 -18 2 -43 1 -57 -3 -20 -5 -24 -11 -21 -38 l3 -32 68 -3 c64 -3 68 -4 65 -25 -3 -21 -8 -22 -98 -22 l-95 0 -3 134 c-1 74 0 141 3 149 3 9 13 12 28 8 12 -3 55 -6 95 -6z m-2160 -115 c2 -72 7 -112 15 -117 7 -4 36 -8 65 -8 50 0 53 -2 50 -22 -3 -22 -9 -23 -86 -26 -46 -2 -89 1 -95 7 -8 6 -11 51 -9 146 l3 136 27 -3 27 -3 3 -110z m870 71 c12 -24 22 -48 22 -55 0 -6 4 -19 10 -29 13 -23 46 -102 54 -129 5 -16 2 -23 -13 -28 -26 -8 -40 0 -51 31 -9 22 -15 24 -79 24 -66 0 -71 -2 -91 -30 -20 -29 -53 -40 -64 -21 -3 4 4 25 14 47 11 21 20 46 20 56 0 9 4 19 9 22 4 3 11 18 14 33 3 16 15 49 27 76 20 45 22 47 64 47 40 0 44 -2 64 -44z m-360 -483 c2 -7 -3 -13 -12 -13 -9 0 -16 -6 -16 -14 0 -8 -6 -17 -12 -19 -7 -3 -1 -4 14 -3 15 0 33 9 41 19 13 18 15 18 56 -4 l43 -22 -26 -14 c-22 -11 -25 -17 -16 -33 6 -10 24 -27 40 -37 17 -9 30 -21 30 -25 0 -14 -47 -8 -60 7 -7 8 -19 15 -27 15 -8 0 -32 13 -52 28 -20 15 -48 34 -63 41 -35 18 -35 21 -1 60 28 32 53 37 61 14z m1245 -8 c43 -38 33 -75 -23 -75 -10 0 -20 -7 -24 -15 -3 -8 -12 -15 -19 -15 -8 0 -20 -7 -27 -15 -7 -8 -19 -15 -28 -15 -8 0 -23 -7 -31 -14 -10 -9 -22 -12 -30 -7 -11 7 -9 10 7 15 19 6 35 39 24 50 -3 3 -21 6 -41 6 l-36 0 30 25 c17 13 37 24 46 25 9 0 19 7 23 15 3 8 16 15 29 15 14 0 30 7 37 15 17 21 30 18 63 -10z m-888 -160 c44 -24 103 -55 130 -70 28 -14 54 -30 60 -36 26 -26 87 -2 299 116 78 43 98 40 106 -15 6 -38 29 -52 37 -22 6 24 32 37 46 23 12 -12 0 -31 -19 -31 -8 0 -14 -4 -14 -10 0 -5 -9 -10 -20 -10 -10 0 -24 -9 -30 -19 -5 -11 -49 -41 -97 -67 -49 -25 -125 -69 -169 -95 -45 -27 -88 -49 -95 -49 -8 0 -25 9 -39 20 -14 11 -28 20 -32 20 -4 0 -41 20 -81 45 -41 25 -78 45 -82 45 -4 0 -27 14 -52 30 -24 17 -46 30 -49 30 -10 0 -64 44 -64 52 0 4 7 8 15 8 11 0 15 11 15 40 0 30 -4 40 -16 40 -8 0 -13 4 -10 9 9 15 72 -7 161 -54z"/> <path d="M5064 2827 c-2 -7 -3 -74 -2 -148 l3 -134 116 -3 c105 -2 117 -1 121 15 4 14 3 100 -2 276 0 4 -52 7 -115 7 -86 0 -117 -3 -121 -13z"/> <path d="M5135 2241 l-70 -6 -3 -124 c-1 -68 1 -128 5 -132 4 -4 59 -9 121 -10 85 -3 115 0 121 10 11 17 1 243 -11 259 -11 12 -39 13 -163 3z"/> <path d="M6171 2807 c-7 -9 -7 -148 0 -442 8 -385 11 -431 26 -442 10 -8 49 -13 99 -13 44 0 105 -4 133 -10 37 -7 59 -7 73 1 21 11 21 15 15 273 -13 485 -20 628 -31 631 -6 2 -77 6 -158 9 -110 4 -149 2 -157 -7z"/> <path d="M3936 1235 c-10 -14 -16 -38 -14 -53 2 -21 9 -28 32 -30 38 -5 47 12 32 61 -14 50 -28 56 -50 22z"/> <path d="M4840 780 c-7 -13 -21 -20 -40 -20 -34 0 -40 -22 -14 -55 14 -19 16 -19 25 -2 6 9 17 17 24 17 8 0 15 4 15 9 0 5 7 17 16 26 16 16 13 45 -5 45 -6 0 -15 -9 -21 -20z"/> </g> </svg> 